<mxfile host="app.diagrams.net" modified="2021-06-30T06:59:07.709Z" agent="5.0 (Windows NT 10.0; Win64; x64) AppleWebKit/537.36 (KHTML, like Gecko) Chrome/91.0.4472.114 Safari/537.36" etag="zFaajuaGtZA7d5SiDmQH" version="14.8.2" type="github">
  <diagram id="mTtdryZbqsRJS896h40v" name="Page-1">
    <mxGraphModel dx="782" dy="436" grid="1" gridSize="10" guides="1" tooltips="1" connect="1" arrows="1" fold="1" page="1" pageScale="1" pageWidth="850" pageHeight="1100" math="0" shadow="0">
      <root>
        <mxCell id="0" />
        <mxCell id="1" parent="0" />
        <mxCell id="blm5VY7jWJpTRxp0EUJT-4" value="Initiation" style="edgeStyle=orthogonalEdgeStyle;rounded=0;orthogonalLoop=1;jettySize=auto;html=1;entryX=0.117;entryY=-0.033;entryDx=0;entryDy=0;entryPerimeter=0;" edge="1" parent="1" source="blm5VY7jWJpTRxp0EUJT-1" target="blm5VY7jWJpTRxp0EUJT-3">
          <mxGeometry relative="1" as="geometry">
            <Array as="points">
              <mxPoint x="140" y="190" />
              <mxPoint x="140" y="190" />
            </Array>
          </mxGeometry>
        </mxCell>
        <mxCell id="blm5VY7jWJpTRxp0EUJT-5" value="Account Validation" style="edgeStyle=orthogonalEdgeStyle;rounded=0;orthogonalLoop=1;jettySize=auto;html=1;" edge="1" parent="1" source="blm5VY7jWJpTRxp0EUJT-1">
          <mxGeometry relative="1" as="geometry">
            <mxPoint x="190" y="269" as="targetPoint" />
            <Array as="points">
              <mxPoint x="190" y="269" />
            </Array>
          </mxGeometry>
        </mxCell>
        <mxCell id="blm5VY7jWJpTRxp0EUJT-7" style="edgeStyle=orthogonalEdgeStyle;rounded=0;orthogonalLoop=1;jettySize=auto;html=1;entryX=0.599;entryY=-0.078;entryDx=0;entryDy=0;entryPerimeter=0;" edge="1" parent="1" source="blm5VY7jWJpTRxp0EUJT-1" target="blm5VY7jWJpTRxp0EUJT-3">
          <mxGeometry relative="1" as="geometry">
            <Array as="points">
              <mxPoint x="429" y="180" />
              <mxPoint x="429" y="180" />
            </Array>
          </mxGeometry>
        </mxCell>
        <mxCell id="blm5VY7jWJpTRxp0EUJT-8" value="Initiate External Payment" style="edgeLabel;html=1;align=center;verticalAlign=middle;resizable=0;points=[];" vertex="1" connectable="0" parent="blm5VY7jWJpTRxp0EUJT-7">
          <mxGeometry x="-0.1645" relative="1" as="geometry">
            <mxPoint y="-1" as="offset" />
          </mxGeometry>
        </mxCell>
        <mxCell id="blm5VY7jWJpTRxp0EUJT-9" style="edgeStyle=orthogonalEdgeStyle;rounded=0;orthogonalLoop=1;jettySize=auto;html=1;entryX=0.852;entryY=0;entryDx=0;entryDy=0;entryPerimeter=0;" edge="1" parent="1" source="blm5VY7jWJpTRxp0EUJT-1" target="blm5VY7jWJpTRxp0EUJT-3">
          <mxGeometry relative="1" as="geometry">
            <mxPoint x="560" y="260" as="targetPoint" />
            <Array as="points">
              <mxPoint x="580" y="260" />
              <mxPoint x="581" y="260" />
            </Array>
          </mxGeometry>
        </mxCell>
        <mxCell id="blm5VY7jWJpTRxp0EUJT-10" value="External Payment Complete" style="edgeLabel;html=1;align=center;verticalAlign=middle;resizable=0;points=[];" vertex="1" connectable="0" parent="blm5VY7jWJpTRxp0EUJT-9">
          <mxGeometry x="-0.3035" relative="1" as="geometry">
            <mxPoint as="offset" />
          </mxGeometry>
        </mxCell>
        <mxCell id="blm5VY7jWJpTRxp0EUJT-14" style="edgeStyle=orthogonalEdgeStyle;rounded=0;orthogonalLoop=1;jettySize=auto;html=1;entryX=0.043;entryY=-0.022;entryDx=0;entryDy=0;entryPerimeter=0;" edge="1" parent="1" source="blm5VY7jWJpTRxp0EUJT-1" target="blm5VY7jWJpTRxp0EUJT-3">
          <mxGeometry relative="1" as="geometry">
            <Array as="points">
              <mxPoint x="96" y="170" />
              <mxPoint x="96" y="170" />
            </Array>
          </mxGeometry>
        </mxCell>
        <mxCell id="blm5VY7jWJpTRxp0EUJT-15" value="Hearbeat Event&lt;br&gt;[For internal services]" style="edgeLabel;html=1;align=center;verticalAlign=middle;resizable=0;points=[];" vertex="1" connectable="0" parent="blm5VY7jWJpTRxp0EUJT-14">
          <mxGeometry x="-0.3525" y="2" relative="1" as="geometry">
            <mxPoint as="offset" />
          </mxGeometry>
        </mxCell>
        <mxCell id="blm5VY7jWJpTRxp0EUJT-1" value="NEFT Service" style="rounded=0;whiteSpace=wrap;html=1;" vertex="1" parent="1">
          <mxGeometry x="80" y="80" width="540" height="60" as="geometry" />
        </mxCell>
        <mxCell id="blm5VY7jWJpTRxp0EUJT-3" value="Messaging System&lt;br&gt;[Container: Kafka]" style="rounded=1;whiteSpace=wrap;html=1;fillColor=#dae8fc;strokeColor=#6c8ebf;" vertex="1" parent="1">
          <mxGeometry x="70" y="270" width="600" height="60" as="geometry" />
        </mxCell>
        <mxCell id="blm5VY7jWJpTRxp0EUJT-11" value="" style="swimlane;startSize=0;" vertex="1" parent="1">
          <mxGeometry x="90" y="400" width="590" height="460" as="geometry" />
        </mxCell>
        <mxCell id="blm5VY7jWJpTRxp0EUJT-19" style="edgeStyle=orthogonalEdgeStyle;rounded=0;orthogonalLoop=1;jettySize=auto;html=1;entryX=0.5;entryY=0;entryDx=0;entryDy=0;entryPerimeter=0;" edge="1" parent="blm5VY7jWJpTRxp0EUJT-11" source="blm5VY7jWJpTRxp0EUJT-12" target="blm5VY7jWJpTRxp0EUJT-17">
          <mxGeometry relative="1" as="geometry" />
        </mxCell>
        <mxCell id="blm5VY7jWJpTRxp0EUJT-12" value="Event Collector Service" style="rounded=0;whiteSpace=wrap;html=1;fillColor=#dae8fc;strokeColor=#6c8ebf;" vertex="1" parent="blm5VY7jWJpTRxp0EUJT-11">
          <mxGeometry x="20" y="60" width="120" height="60" as="geometry" />
        </mxCell>
        <mxCell id="blm5VY7jWJpTRxp0EUJT-17" value="Payments Database" style="shape=cylinder3;whiteSpace=wrap;html=1;boundedLbl=1;backgroundOutline=1;size=15;" vertex="1" parent="blm5VY7jWJpTRxp0EUJT-11">
          <mxGeometry x="50" y="230" width="60" height="80" as="geometry" />
        </mxCell>
        <mxCell id="blm5VY7jWJpTRxp0EUJT-18" value="Payments Dashboard Service" style="text;html=1;strokeColor=none;fillColor=none;align=center;verticalAlign=middle;whiteSpace=wrap;rounded=0;" vertex="1" parent="blm5VY7jWJpTRxp0EUJT-11">
          <mxGeometry y="430" width="130" height="20" as="geometry" />
        </mxCell>
        <mxCell id="blm5VY7jWJpTRxp0EUJT-20" value="Transaction&amp;nbsp;&lt;br&gt;Service&lt;br&gt;[Sprint Boot]&lt;br&gt;&lt;br&gt;Transaction Overview, Transaction Insight" style="rounded=0;whiteSpace=wrap;html=1;fillColor=#dae8fc;strokeColor=#6c8ebf;" vertex="1" parent="blm5VY7jWJpTRxp0EUJT-11">
          <mxGeometry x="190" y="200" width="140" height="80" as="geometry" />
        </mxCell>
        <mxCell id="blm5VY7jWJpTRxp0EUJT-21" value="Payments Dashboard Web&lt;br&gt;[Container: Angular]" style="rounded=0;whiteSpace=wrap;html=1;fillColor=#dae8fc;strokeColor=#6c8ebf;" vertex="1" parent="blm5VY7jWJpTRxp0EUJT-11">
          <mxGeometry x="310" y="50" width="120" height="60" as="geometry" />
        </mxCell>
        <mxCell id="blm5VY7jWJpTRxp0EUJT-22" value="Health&lt;br&gt;Service&lt;br&gt;[Sprint Boot]" style="rounded=0;whiteSpace=wrap;html=1;fillColor=#dae8fc;strokeColor=#6c8ebf;" vertex="1" parent="blm5VY7jWJpTRxp0EUJT-11">
          <mxGeometry x="450" y="210" width="120" height="60" as="geometry" />
        </mxCell>
        <mxCell id="blm5VY7jWJpTRxp0EUJT-23" value="Alert&lt;br&gt;Service&lt;br&gt;[Sprint Boot]" style="rounded=0;whiteSpace=wrap;html=1;fillColor=#dae8fc;strokeColor=#6c8ebf;" vertex="1" parent="blm5VY7jWJpTRxp0EUJT-11">
          <mxGeometry x="260" y="320" width="120" height="60" as="geometry" />
        </mxCell>
        <mxCell id="blm5VY7jWJpTRxp0EUJT-25" value="" style="shape=cylinder3;whiteSpace=wrap;html=1;boundedLbl=1;backgroundOutline=1;size=15;" vertex="1" parent="blm5VY7jWJpTRxp0EUJT-11">
          <mxGeometry x="480" y="300" width="60" height="80" as="geometry" />
        </mxCell>
        <mxCell id="blm5VY7jWJpTRxp0EUJT-16" value="All the events posted from NEFT Service" style="text;html=1;strokeColor=none;fillColor=none;align=center;verticalAlign=middle;whiteSpace=wrap;rounded=0;" vertex="1" parent="1">
          <mxGeometry x="310" y="360" width="130" height="20" as="geometry" />
        </mxCell>
      </root>
    </mxGraphModel>
  </diagram>
</mxfile>
